<?xml version="1.0" encoding="UTF-8" standalone="no"?>
<!-- Created with Inkscape (http://www.inkscape.org/) -->

<svg
   xmlns:dc="http://purl.org/dc/elements/1.1/"
   xmlns:cc="http://creativecommons.org/ns#"
   xmlns:rdf="http://www.w3.org/1999/02/22-rdf-syntax-ns#"
   xmlns:svg="http://www.w3.org/2000/svg"
   xmlns="http://www.w3.org/2000/svg"
   xmlns:sodipodi="http://sodipodi.sourceforge.net/DTD/sodipodi-0.dtd"
   xmlns:inkscape="http://www.inkscape.org/namespaces/inkscape"
   width="4000"
   height="1234.6377"
   viewBox="0 0 4000 1234.6377"
   version="1.1"
   id="svg5780"
   inkscape:version="0.92.0 r15299"
   sodipodi:docname="ARCO.svg">
  <defs
     id="defs5774" />
  <sodipodi:namedview
     id="base"
     pagecolor="#ffffff"
     bordercolor="#666666"
     borderopacity="1.0"
     inkscape:pageopacity="0.0"
     inkscape:pageshadow="2"
     inkscape:zoom="0.175"
     inkscape:cx="1253.6785"
     inkscape:cy="683.67228"
     inkscape:document-units="px"
     inkscape:current-layer="layer1"
     showgrid="false"
     units="px"
     inkscape:window-width="1920"
     inkscape:window-height="1017"
     inkscape:window-x="-8"
     inkscape:window-y="-8"
     inkscape:window-maximized="1" />
  <metadata
     id="metadata5777">
    <rdf:RDF>
      <cc:Work
         rdf:about="">
        <dc:format>image/svg+xml</dc:format>
        <dc:type
           rdf:resource="http://purl.org/dc/dcmitype/StillImage" />
        <dc:title></dc:title>
      </cc:Work>
    </rdf:RDF>
  </metadata>
  <g
     inkscape:label="Layer 1"
     inkscape:groupmode="layer"
     id="layer1"
     transform="translate(-476.19254,475.90961)">
    <g
       transform="matrix(176.76823,0,0,-176.76823,-65835.89,75320.142)"
       id="g5715">
      <path
         sodipodi:nodetypes="sssssssss"
         inkscape:connector-curvature="0"
         id="path5628"
         d="m 376.3815,421.84525 h 20.137 c 0.66688,0 1.20375,0.53687 1.20375,1.20375 v 4.493 c 0,0.66688 -0.53687,1.20375 -1.20375,1.20375 h -20.137 c -0.66688,0 -1.20375,-0.53687 -1.20375,-1.20375 v -4.493 c 0,-0.66688 0.53687,-1.20375 1.20375,-1.20375 z"
         style="opacity:1;fill:#ffffff;fill-opacity:1;stroke:none;stroke-width:0.024075" />
      <path
         sodipodi:nodetypes="sssssssss"
         inkscape:connector-curvature="0"
         id="path5702"
         d="m 376.3815,422.29325 h 20.137 c 0.41868,0 0.75575,0.33706 0.75575,0.75575 v 4.493 c 0,0.41868 -0.33707,0.75575 -0.75575,0.75575 h -20.137 c -0.41869,0 -0.75575,-0.33707 -0.75575,-0.75575 v -4.493 c 0,-0.41869 0.33706,-0.75575 0.75575,-0.75575 z"
         style="opacity:1;fill:#00009f;fill-opacity:1;stroke:none;stroke-width:0.0151149" />
      <path
         inkscape:connector-curvature="0"
         d="m 376.3815,421.80325 h 20.137 c 0.69015,0 1.24575,0.5556 1.24575,1.24575 v 4.493 c 0,0.69015 -0.5556,1.24575 -1.24575,1.24575 h -20.137 c -0.69015,0 -1.24575,-0.5556 -1.24575,-1.24575 v -4.493 c 0,-0.69015 0.5556,-1.24575 1.24575,-1.24575 z m 0,0.084 c -0.64361,0 -1.16175,0.51814 -1.16175,1.16175 v 4.493 c 0,0.64361 0.51814,1.16175 1.16175,1.16175 h 20.137 c 0.64361,0 1.16175,-0.51814 1.16175,-1.16175 v -4.493 c 0,-0.64361 -0.51814,-1.16175 -1.16175,-1.16175 z"
         style="opacity:1;fill:#00009f;fill-opacity:1;stroke:none;stroke-width:0.024075"
         id="path4576" />
      <path
         inkscape:connector-curvature="0"
         d="m 376.3815,422.25125 h 20.137 c 0.44195,0 0.79775,0.35579 0.79775,0.79775 v 4.493 c 0,0.44195 -0.3558,0.79775 -0.79775,0.79775 h -20.137 c -0.44196,0 -0.79775,-0.3558 -0.79775,-0.79775 v -4.493 c 0,-0.44196 0.35579,-0.79775 0.79775,-0.79775 z m 0,0.084 c -0.39542,0 -0.71375,0.31833 -0.71375,0.71375 v 4.493 c 0,0.39541 0.31833,0.71375 0.71375,0.71375 h 20.137 c 0.39541,0 0.71375,-0.31834 0.71375,-0.71375 v -4.493 c 0,-0.39542 -0.31834,-0.71375 -0.71375,-0.71375 z"
         style="opacity:1;fill:#00009f;fill-opacity:1;stroke:none;stroke-width:0.0151149"
         id="path4580" />
      <g
         transform="translate(-0.01875,-0.0225)"
         id="g4659">
        <path
           d="m 391.7775,425.425 1.7785,1.7785 v -1.0475 c 0,-0.40498 -0.32603,-0.731 -0.731,-0.731 z"
           style="fill:#ff0000;fill-opacity:1;fill-rule:nonzero;stroke:none"
           id="path5389"
           inkscape:connector-curvature="0"
           sodipodi:nodetypes="ccssc" />
        <path
           d="m 393.556,423.4325 -1.7785,1.7785 h 1.0475 c 0.40497,0 0.731,-0.32603 0.731,-0.731 z"
           style="fill:#ff0000;fill-opacity:1;fill-rule:nonzero;stroke:none"
           id="path5391"
           inkscape:connector-curvature="0"
           sodipodi:nodetypes="ccssc" />
        <path
           d="m 395.5485,425.211 -1.7785,-1.7785 v 1.0475 c 0,0.40497 0.32602,0.731 0.731,0.731 z"
           style="fill:#ff0000;fill-opacity:1;fill-rule:nonzero;stroke:none"
           id="path5393"
           inkscape:connector-curvature="0"
           sodipodi:nodetypes="ccssc" />
        <path
           d="m 393.77,427.2035 1.7785,-1.7785 h -1.0475 c -0.40498,0 -0.731,0.32602 -0.731,0.731 z"
           style="fill:#ff0000;fill-opacity:1;fill-rule:nonzero;stroke:none"
           id="path5395"
           inkscape:connector-curvature="0"
           sodipodi:nodetypes="ccssc" />
      </g>
      <g
         transform="matrix(0.05609403,0,0,0.05609403,380.23736,390.82736)"
         id="g4631">
        <path
           inkscape:connector-curvature="0"
           id="path4610"
           style="font-style:normal;font-variant:normal;font-weight:bold;font-stretch:normal;font-size:medium;line-height:72px;font-family:'Helvetica Neue';-inkscape-font-specification:'Helvetica Neue Bold';letter-spacing:0px;word-spacing:0px;fill:#ffffff;fill-opacity:1;stroke:none;stroke-width:0.75"
           d="m -51.112557,586.72552 h 11.448 l 4.032,11.448 h 19.224 l 3.888,-11.448 h 11.73600015 l -19.22400015,51.408 h -11.592 z m 25.128,38.736 h 0.144 l 6.48,-18.864 h -13.32 z" />
        <path
           inkscape:connector-curvature="0"
           id="path4612"
           style="font-style:normal;font-variant:normal;font-weight:bold;font-stretch:normal;font-size:medium;line-height:72px;font-family:'Helvetica Neue';-inkscape-font-specification:'Helvetica Neue Bold';letter-spacing:0px;word-spacing:0px;fill:#ffffff;fill-opacity:1;stroke:none;stroke-width:0.75"
           d="M 1.6589432,586.72552 H 12.962943 v 20.088 h 11.304 c 5.688,0 7.776,-2.376 8.568,-7.776 0.576,-4.104 0.432,-9.072 1.8,-12.312 h 11.304 c -2.016,2.88 -1.944,8.928 -2.16,12.168 -0.36,5.184 -1.944,10.584 -7.488,12.024 v 0.144 c 5.688,2.304 8.136,6.84 8.136,12.888 0,7.776 -5.832,14.184 -15.048,14.184 H 1.6589432 Z m 11.3039998,42.624 h 12.384 c 5.04,0 7.776,-2.16 7.776,-7.128 0,-5.184 -2.736,-7.344 -7.776,-7.344 h -12.384 z" />
        <path
           inkscape:connector-curvature="0"
           id="path4614"
           style="font-style:normal;font-variant:normal;font-weight:bold;font-stretch:normal;font-size:medium;line-height:72px;font-family:'Helvetica Neue';-inkscape-font-specification:'Helvetica Neue Bold';letter-spacing:0px;word-spacing:0px;fill:#ffffff;fill-opacity:1;stroke:none;stroke-width:0.75"
           d="m 96.342318,620.85352 c -1.368,11.88 -10.872,18.504 -22.176,18.504 -15.912,0 -25.272,-11.88 -25.272,-27.144 0,-14.832 9.36,-26.712 25.272,-26.712 12.6,0 21.456,8.208 22.608,21.024 h -10.944 c -0.864,-6.768 -4.752,-11.52 -11.664,-11.52 -10.152,0 -13.968,8.64 -13.968,17.208 0,9 3.816,17.64 13.968,17.64 5.616,0 10.512,-3.888 11.232,-9 z" />
        <path
           inkscape:connector-curvature="0"
           id="path4616"
           style="font-style:normal;font-variant:normal;font-weight:bold;font-stretch:normal;font-size:medium;line-height:72px;font-family:'Helvetica Neue';-inkscape-font-specification:'Helvetica Neue Bold';letter-spacing:0px;word-spacing:0px;fill:#ffffff;fill-opacity:1;stroke:none;stroke-width:0.75"
           d="m 100.85357,612.21352 c 0,-14.832 9.36,-26.712 25.272,-26.712 15.912,0 25.272,11.88 25.272,26.712 0,15.264 -9.36,27.144 -25.272,27.144 -15.912,0 -25.272,-11.88 -25.272,-27.144 z m 11.304,0 c 0,9 3.816,17.64 13.968,17.64 10.152,0 13.968,-8.64 13.968,-17.64 0,-8.568 -3.816,-17.208 -13.968,-17.208 -10.152,0 -13.968,8.64 -13.968,17.208 z" />
      </g>
    </g>
  </g>
</svg>
