<svg xmlns="http://www.w3.org/2000/svg" xmlns:xlink="http://www.w3.org/1999/xlink" viewBox="0,0,256,256" width="50px" height="50px" fill-rule="nonzero"><g fill="#fcc419" fill-rule="nonzero" stroke="none" stroke-width="1" stroke-linecap="butt" stroke-linejoin="miter" stroke-miterlimit="10" stroke-dasharray="" stroke-dashoffset="0" font-family="none" font-weight="none" font-size="none" text-anchor="none" style="mix-blend-mode: normal"><g transform="scale(5.12,5.12)"><path d="M13,3c-5.51133,0 -10,4.48867 -10,10v24c0,5.51133 4.48867,10 10,10h24c5.51133,0 10,-4.48867 10,-10v-24c0,-5.51133 -4.48867,-10 -10,-10zM14,5h6v17.58984c-0.92756,-0.37752 -1.93951,-0.58984 -3,-0.58984c-1.06048,0 -2.07244,0.21232 -3,0.58984zM22,5h5.04102c0.01008,0.193 0.00765,0.38881 0.02344,0.58008l1.99414,-0.16211c-0.0112,-0.13795 -0.00956,-0.27927 -0.01758,-0.41797h4.95898c0,0.184 0.00367,0.36683 0.01367,0.54883l1.99805,-0.10156c-0.008,-0.148 -0.01172,-0.29727 -0.01172,-0.44727h1c4.43067,0 8,3.56933 8,8v0.97656c-0.15009,0.00012 -0.29858,0.01902 -0.44727,0.01172l-0.10156,1.99805c0.182,0.01 0.36483,0.01367 0.54883,0.01367v4.95898c-0.1387,-0.00802 -0.28001,-0.00638 -0.41797,-0.01758l-0.16211,1.99414c0.19127,0.01579 0.38707,0.01336 0.58008,0.02344v13.01563c-0.00846,-0.00011 -0.01693,-0.00011 -0.02539,0c-0.55228,0 -1,0.44772 -1,1c0.00064,0.53663 0.42472,0.97709 0.96094,0.99805c-0.38106,3.16203 -2.58857,5.74683 -5.54687,6.66602c0.02174,-0.08223 0.0329,-0.1669 0.0332,-0.25195c0,-0.55228 -0.44772,-1 -1,-1c-0.55228,0 -1,0.44772 -1,1c0.00019,0.20883 0.06576,0.41236 0.1875,0.58203c-0.20174,0.01512 -0.40365,0.03125 -0.60937,0.03125h-15v-8.76758c1.82559,-1.46834 3,-3.71637 3,-6.23242c0,-2.51605 -1.17441,-4.76408 -3,-6.23242v-1.85156c0.01236,0.00088 0.02473,0.00153 0.03711,0.00195c0.55228,0 1,-0.44772 1,-1c0,-0.55228 -0.44772,-1 -1,-1c-0.01238,0.00042 -0.02475,0.00107 -0.03711,0.00195zM12,5.06445v7.99219c-0.4631,0.09703 -0.79481,0.50536 -0.79492,0.97851c0.00011,0.47316 0.33182,0.88148 0.79492,0.97852v8.75391c-1.82559,1.46834 -3,3.71637 -3,6.23242c0,2.51605 1.17441,4.76408 3,6.23242v8.69922c-3.95458,-0.49042 -7,-3.84049 -7,-7.93164v-14.79687c0.18116,0.15693 0.41266,0.24357 0.65234,0.24414c0.55228,0 1,-0.44772 1,-1c0,-0.55228 -0.44772,-1 -1,-1c-0.23943,0.00003 -0.4709,0.08597 -0.65234,0.24219v-7.68945c0,-0.90412 0.15544,-1.76875 0.42969,-2.57812c0.07303,0.01678 0.14772,0.0253 0.22266,0.02539c0.26522,0 0.51957,-0.10536 0.70711,-0.29289c0.18754,-0.18754 0.29289,-0.44189 0.29289,-0.70711c-0.00028,-0.3042 -0.13902,-0.59172 -0.37695,-0.78125c1.25118,-1.94206 3.31798,-3.30264 5.72461,-3.60156zM29.48047,8.0332l-1.94336,0.47266c0.233,0.958 0.54578,1.90545 0.92578,2.81445l1.84375,-0.77148c-0.34,-0.813 -0.61817,-1.65862 -0.82617,-2.51562zM36.52539,8.03906l-1.88281,0.67578c0.364,1.016 0.87839,1.9728 1.52539,2.8418l1.60352,-1.19336c-0.529,-0.712 -0.94809,-1.49322 -1.24609,-2.32422zM8.92969,10.74023c-0.55228,0 -1,0.44772 -1,1c0,0.55228 0.44772,1 1,1c0.55228,0 1,-0.44772 1,-1c0,-0.55228 -0.44772,-1 -1,-1zM39.63672,12.22852l-1.19336,1.60547c0.87,0.646 1.8258,1.15944 2.8418,1.52344l0.67578,-1.88281c-0.83,-0.298 -1.61322,-0.71709 -2.32422,-1.24609zM31.51563,12.9043l-1.70312,1.04883c0.516,0.838 1.10314,1.64358 1.74414,2.39258l1.51953,-1.30078c-0.574,-0.671 -1.09855,-1.39062 -1.56055,-2.14062zM34.94922,16.91797l-1.30078,1.51953c0.748,0.641 1.55362,1.22909 2.39062,1.74609l1.05078,-1.70312c-0.75,-0.463 -1.47062,-0.9885 -2.14062,-1.5625zM39.44336,19.68945l-0.77148,1.8457c0.909,0.38 1.8545,0.69278 2.8125,0.92578l0.47461,-1.94336c-0.857,-0.209 -1.70363,-0.48813 -2.51562,-0.82812zM25.3125,22.21094c-0.55228,0 -1,0.44772 -1,1c0,0.55228 0.44772,1 1,1c0.55228,0 1,-0.44772 1,-1c0,-0.55228 -0.44772,-1 -1,-1zM8.92969,22.74023c-0.55228,0 -1,0.44772 -1,1c0,0.55228 0.44772,1 1,1c0.55228,0 1,-0.44772 1,-1c0,-0.55228 -0.44772,-1 -1,-1zM17,24c3.32555,0 6,2.67445 6,6c0,3.32555 -2.67445,6 -6,6c-3.32555,0 -6,-2.67445 -6,-6c0,-3.32555 2.67445,-6 6,-6zM28.58984,24.50586c-0.55228,0 -1,0.44772 -1,1c0,0.55228 0.44772,1 1,1c0.55228,0 1,-0.44772 1,-1c0,-0.55228 -0.44772,-1 -1,-1zM17,26l-3,8l3,-2l3,2zM31.86719,26.79883c-0.55228,0 -1,0.44772 -1,1c0,0.55228 0.44772,1 1,1c0.55228,0 1,-0.44772 1,-1c0,-0.55228 -0.44772,-1 -1,-1zM35.14453,29.09375c-0.55228,0 -1,0.44772 -1,1c0.00022,0.15018 0.03427,0.29838 0.09961,0.43359c-0.56792,0.31688 -1.4404,0.6543 -2.67383,0.6543c-2.286,0 -3.16602,-1.13477 -3.16602,-1.13477c-0.891,1.324 -1.4043,2.94269 -1.4043,4.67969c0,4.574 3.577,8.27344 8,8.27344c4.423,0 8,-3.69944 8,-8.27344c0,-1.737 -0.51425,-3.35569 -1.40625,-4.67969c0,0 -0.88002,1.13477 -3.16602,1.13477c-1.07097,0 -1.88022,-0.25938 -2.44922,-0.53516c0.10846,-0.16393 0.1662,-0.35618 0.16602,-0.55273c0,-0.55228 -0.44772,-1 -1,-1zM35,32.39648c0.81,0.409 1.95569,0.78516 3.42969,0.78516c0.908,0 1.66883,-0.13594 2.29883,-0.33594c0.179,0.6 0.27344,1.23381 0.27344,1.88281c-0.001,3.458 -2.69395,6.27148 -6.00195,6.27148c-3.308,0 -6,-2.81444 -6,-6.27344c0,-0.649 0.09148,-1.28086 0.27148,-1.88086c0.629,0.2 1.39178,0.33594 2.30078,0.33594c1.473,0.001 2.61773,-0.37616 3.42773,-0.78516zM25.3125,34.21094c-0.55228,0 -1,0.44772 -1,1c0,0.55228 0.44772,1 1,1c0.55228,0 1,-0.44772 1,-1c0,-0.55228 -0.44772,-1 -1,-1zM14,37.41016c0.92756,0.37752 1.93952,0.58984 3,0.58984c1.06048,0 2.07244,-0.21232 3,-0.58984v7.58984h-6z"></path></g></g></svg>