<svg xmlns="http://www.w3.org/2000/svg" xmlns:xlink="http://www.w3.org/1999/xlink" viewBox="0,0,256,256" width="50px" height="50px" fill-rule="nonzero"><g fill="#fcc419" fill-rule="nonzero" stroke="none" stroke-width="1" stroke-linecap="butt" stroke-linejoin="miter" stroke-miterlimit="10" stroke-dasharray="" stroke-dashoffset="0" font-family="none" font-weight="none" font-size="none" text-anchor="none" style="mix-blend-mode: normal"><g transform="scale(5.12,5.12)"><path d="M17.656,24.331c0.811,0.879 1.926,1.539 2.725,2.012c0.468,0.277 0.911,0.539 1.272,0.794c0.171,0.121 0.346,0.242 0.522,0.363c1.751,1.212 2.825,2.03 2.825,3.522c0,0.931 -0.346,1.546 -1.694,3.315c-0.764,-0.763 -1.93,-1.546 -3.531,-2.62l-1.035,-0.697c-2.224,-1.504 -2.586,-1.865 -2.654,-3.504c-0.046,-1.097 0.801,-2.283 1.122,-2.638l0.048,-0.051l0.044,-0.054l0.356,-0.442M18.06,20.647l-2.318,2.87c0,0 -1.747,1.878 -1.656,4.084c0.11,2.649 1.225,3.516 3.532,5.077c3.753,2.538 5.518,3.532 4.525,4.635c0.883,0.662 0.331,0.221 0.883,0.662c2.87,-3.752 3.974,-4.853 3.974,-6.953c0,-2.87 -2.318,-4.194 -4.194,-5.518c-1.876,-1.324 -4.967,-2.428 -3.973,-4.304c-0.773,-0.553 -0.773,-0.553 -0.773,-0.553zM24.603,7.35c0.702,0.926 1.622,1.508 1.977,1.711c0.665,0.457 5.437,3.738 6.799,4.681c1.542,1.068 3.312,2.577 3.312,4.786c0,2.477 -1.125,3.791 -1.151,3.821l-0.064,0.068l-0.057,0.074l-2.336,3.011c-0.844,-1.598 -2.245,-2.675 -2.449,-2.827l-0.031,-0.023l-0.031,-0.021c-0.061,-0.042 -6.072,-4.161 -7.376,-5.139c-0.893,-0.67 -1.795,-2.249 -1.795,-4.266c0,-1.839 1.152,-3.145 1.151,-3.145v0l0.077,-0.082l0.067,-0.09l1.907,-2.559M25.35,3l-4.258,5.713c0,0 -1.692,1.805 -1.692,4.512c0,2.707 1.241,4.851 2.595,5.866c1.354,1.015 7.446,5.189 7.446,5.189c0,0 2,1.485 2.256,3.272c0.179,1.247 0.089,1.432 -0.249,1.996c0.676,0.452 0.676,0.452 0.676,0.452l4.875,-6.283c0,0 1.692,-1.805 1.692,-5.189c0,-3.384 -2.707,-5.415 -4.174,-6.43c-1.467,-1.015 -6.881,-4.738 -6.881,-4.738c0,0 -1.918,-1.015 -1.918,-2.482c0,-1.128 0.309,-1.314 0.309,-1.314l-0.677,-0.564zM29.781,47h-9.562l-1,-4h-7.219l1,-2h24l1,2h-7.219z"></path></g></g></svg>