<svg xmlns="http://www.w3.org/2000/svg" xmlns:xlink="http://www.w3.org/1999/xlink" viewBox="0,0,256,256" width="50px" height="50px" fill-rule="nonzero"><g fill="#fcc419" fill-rule="nonzero" stroke="none" stroke-width="1" stroke-linecap="butt" stroke-linejoin="miter" stroke-miterlimit="10" stroke-dasharray="" stroke-dashoffset="0" font-family="none" font-weight="none" font-size="none" text-anchor="none" style="mix-blend-mode: normal"><g transform="scale(5.12,5.12)"><path d="M10,4c3.14844,0.96094 6.30078,1.92188 9.44531,2.89063c-0.00391,7.77344 0.00781,15.54688 -0.00391,23.32031c-3.05859,2.70703 -6.10156,5.43359 -9.15234,8.15234c7.45703,-3.91797 14.91016,-7.84375 22.36719,-11.76953c-2.07031,-0.94141 -4.14062,-1.86719 -6.21094,-2.8125c-1.39062,-3.03516 -2.79297,-6.0625 -4.1875,-9.09766c6.91406,2.11328 13.82813,4.23438 20.74219,6.35547c0,3.37891 0,6.75781 0,10.13672c-7.86719,4.69141 -15.74219,9.375 -23.60937,14.06641c-3.12891,-2.19141 -6.25781,-4.38672 -9.39062,-6.57812c0,-11.55469 0,-23.10937 0,-34.66406M10,2c-0.42578,0 -0.84375,0.13672 -1.19141,0.39453c-0.50781,0.375 -0.80859,0.97266 -0.80859,1.60547v34.66016c0,0.65625 0.31641,1.26563 0.85156,1.64063c2.12891,1.48828 4.25781,2.98047 6.38281,4.47266l3.00781,2.10938c0.34375,0.23828 0.74219,0.35938 1.14844,0.35938c0.35156,0 0.70703,-0.09375 1.02344,-0.28125c4.34766,-2.59375 8.69531,-5.18359 13.04688,-7.77344l10.5625,-6.29297c0.60547,-0.35937 0.97656,-1.01172 0.97656,-1.71875v-5.06641l-0.00391,-5.07031c0,-0.87891 -0.57031,-1.65234 -1.41016,-1.91016l-4.58203,-1.40625c-5.38672,-1.65234 -10.77734,-3.30469 -16.16406,-4.94922c-0.19531,-0.05859 -0.39062,-0.08594 -0.58594,-0.08594c-0.28125,0 -0.55469,0.05859 -0.80859,0.16797c0,-1.98828 0,-3.97266 0,-5.96094c0,-0.87891 -0.57031,-1.65234 -1.41016,-1.91406c-3.14844,-0.96875 -6.30078,-1.93359 -9.45312,-2.89063c-0.19141,-0.0625 -0.38672,-0.08984 -0.58203,-0.08984zM21.44141,30.23828c0,-0.00781 0,-0.01562 0,-0.02734c0.00391,-4.16406 0.00391,-8.33203 0.00391,-12.5c0.25,0.53516 0.49609,1.07422 0.74609,1.60938c0.8125,1.76563 1.625,3.53125 2.4375,5.29688c0.19922,0.4375 0.55078,0.78906 0.98828,0.98828c0.82813,0.375 1.65625,0.75 2.48438,1.125l-1.64453,0.86719c-1.67187,0.87891 -3.34375,1.76172 -5.01562,2.64063z"></path></g></g></svg>