<svg xmlns="http://www.w3.org/2000/svg" xmlns:xlink="http://www.w3.org/1999/xlink" viewBox="0,0,256,256" width="50px" height="50px" fill-rule="nonzero"><g fill="#fcc419" fill-rule="nonzero" stroke="none" stroke-width="1" stroke-linecap="butt" stroke-linejoin="miter" stroke-miterlimit="10" stroke-dasharray="" stroke-dashoffset="0" font-family="none" font-weight="none" font-size="none" text-anchor="none" style="mix-blend-mode: normal"><g transform="scale(5.12,5.12)"><path d="M25,1c-9.37997,0 -17,7.62003 -17,17c0,3.93485 1.33847,7.56337 3.57813,10.44141c0.00089,0.0011 0.00105,0.00281 0.00195,0.00391c1.30177,1.75484 3.96021,5.00024 6.4043,8.58203c2.44953,3.58976 4.6252,7.54895 4.96289,10.22852c0.00062,0.00456 0.00127,0.00912 0.00195,0.01367c0.13848,0.9898 0.9969,1.73047 1.99023,1.73047c0.99366,0 1.87375,-0.74677 1.99414,-1.75c0.33045,-2.60554 2.41115,-6.40711 4.79492,-9.89648c2.38528,-3.49158 5.02488,-6.71155 6.42188,-8.57422c-0.01017,0.01357 0.03853,-0.05292 0.0625,-0.08203c2.36384,-2.91961 3.78711,-6.64809 3.78711,-10.69727c0,-9.37997 -7.62003,-17 -17,-17zM25,3c0.60914,0 1.18745,0.10953 1.77734,0.17969l-6.91992,8.45508l-5.36328,-4.33594c2.70441,-2.65495 6.40591,-4.29883 10.50586,-4.29883zM29.00977,3.60742c4.06903,1.12939 7.40615,3.89993 9.29297,7.58594l-5.35547,6.54688c-0.14568,-4.28244 -3.63017,-7.74023 -7.94727,-7.74023c-0.51861,0 -0.97143,0.20203 -1.46289,0.29688zM13.20117,8.82422l5.39063,4.35742l-7.79687,9.5293c-0.49127,-1.48377 -0.79492,-3.05696 -0.79492,-4.71094c0,-3.47786 1.22366,-6.63498 3.20117,-9.17578zM25,12c3.33081,0 6,2.66919 6,6c0,3.33081 -2.66919,6 -6,6c-3.33081,0 -6,-2.66919 -6,-6c0,-3.33081 2.66919,-6 6,-6zM39.17383,13.28516c0.49445,1.4902 0.82617,3.05614 0.82617,4.71484c0,3.58614 -1.25641,6.87033 -3.34766,9.44922c-0.01941,0.02452 -0.03766,0.04994 -0.05469,0.07617c0.06534,-0.09801 0.03111,-0.04931 -0.04687,0.05469c-1.333,1.77733 -4.02488,5.05861 -6.47461,8.64453c-2.44973,3.58592 -4.70735,7.43693 -5.12891,10.78125c-0.00001,0.00195 -0.00001,0.00391 0,0.00586c0.00038,-0.00327 0.01853,-0.01172 -0.00781,-0.01172c-0.0067,0 -0.00827,0.00239 -0.00977,-0.00781c-0.4087,-3.20657 -2.52999,-6.89047 -4.85156,-10.36523zM17.04688,18.23047c0.12969,4.29677 3.62565,7.76953 7.95313,7.76953c0.50477,0 0.94467,-0.1991 1.42383,-0.28906l-7.52539,9.19922c-2.24974,-3.17608 -4.64274,-6.21612 -5.72461,-7.67578c-0.00513,-0.00658 -0.01034,-0.01309 -0.01562,-0.01953c-0.59051,-0.75844 -0.94662,-1.67445 -1.38476,-2.53906z"></path></g></g></svg>