<svg xmlns="http://www.w3.org/2000/svg" xmlns:xlink="http://www.w3.org/1999/xlink" viewBox="0,0,256,256" width="50px" height="50px" fill-rule="nonzero"><g fill="#fcc419" fill-rule="nonzero" stroke="none" stroke-width="1" stroke-linecap="butt" stroke-linejoin="miter" stroke-miterlimit="10" stroke-dasharray="" stroke-dashoffset="0" font-family="none" font-weight="none" font-size="none" text-anchor="none" style="mix-blend-mode: normal"><g transform="scale(8,8)"><path d="M15.49219,4c-5.291,0 -10.49219,4.23045 -10.49219,10.43945c0,7.117 6.96884,11.7593 13.21484,10.0293c1.046,1.783 2.42378,3.53125 5.05078,3.53125c4.341,0 4.73438,-4 4.73438,-5h-1.55469c-0.08,0.716 -0.56772,1.45703 -1.76172,1.45703c-1.088,0 -1.87295,-0.75244 -2.62695,-1.89844c2.346,-1.815 3.89258,-4.64509 3.89258,-8.12109c0.005,-6.235 -5.05503,-10.4375 -10.45703,-10.4375zM15.49219,6c4.044,0 5.76953,2.90945 5.76953,8.43945c0.005,2.218 -0.28867,4.01103 -0.88867,5.33203c-1.035,-1.55 -2.31847,-2.76953 -4.85547,-2.76953c-1.619,0 -2.72486,0.47139 -3.50586,1.15039l0.64648,1.29102c0.329,-0.159 0.53548,-0.1543 0.89649,-0.1543c1.884,0 2.84987,1.63591 3.67187,3.25391c-0.531,0.159 -1.10033,0.22266 -1.73633,0.22266c-3.98,0 -5.70508,-2.81341 -5.70508,-8.31641c0.001,-5.541 1.72703,-8.44922 5.70703,-8.44922z"></path></g></g></svg>