<?xml version="1.0" encoding="utf-8"?>
<!-- Generator: Adobe Illustrator 28.0.0, SVG Export Plug-In . SVG Version: 6.00 Build 0)  -->
<svg version="1.1" id="Layer_1" xmlns="http://www.w3.org/2000/svg" xmlns:xlink="http://www.w3.org/1999/xlink" x="0px" y="0px"
	 viewBox="0 0 512 512" style="enable-background:new 0 0 512 512;" xml:space="preserve">
<style type="text/css">
	.st0{fill:#272D42;}
</style>
<path class="st0" d="M494.3,435.6l-37.2-46.8c-2-2.6-5-4.2-8.3-4.6c-3.3-0.4-6.5,0.5-9.1,2.6l-4.6,3.7l-8.6-10.8
	c33.9-30.9,38.5-83.4,9.5-119.9c-16-20.1-39.1-31.4-62.9-33v-77.4h0c0-1.6-0.6-3.1-1.7-4.2L269.3,43.2c-1.1-1.2-2.7-1.7-4.2-1.7v0
	H64c-3.3,0-6,2.7-6,6v22.7H21c-3.3,0-6,2.7-6,6v388.3c0,3.3,2.7,6,6,6h303.2c3.3,0,6-2.7,6-6v-37.3h37c3.3,0,6-2.7,6-6v-18.6
	c15.4-1,30.6-6.1,44-15.4l8.6,10.8l-4.6,3.7c-2.6,2-4.2,5-4.6,8.3s0.5,6.5,2.6,9.1l37.2,46.8c2,2.6,5,4.2,8.3,4.6
	c0.5,0,1,0.1,1.4,0.1c2.8,0,5.5-0.9,7.7-2.7l18.6-14.8c2.6-2,4.2-5,4.6-8.3S496.4,438.2,494.3,435.6L494.3,435.6z M426.7,267.4
	c26.1,32.8,20.7,80.8-12.2,106.9s-80.8,20.7-106.9-12.2c-12.7-15.9-18.4-35.8-16.1-56c2.3-20.2,12.3-38.3,28.2-50.9
	C352.6,229.1,400.5,234.6,426.7,267.4L426.7,267.4z M271,62l81.6,81.6H271V62z M318.2,458.5H27V82.2h31v339.1c0,3.3,2.7,6,6,6h254.2
	L318.2,458.5L318.2,458.5z M70,415.3V53.5H259v96.1c0,3.3,2.7,6,6,6h96.1v71.4c-17.2,1.1-34.3,7.4-48.9,18.9
	c-7,5.5-12.9,12-17.8,19.1H149.3c-3.3,0-6,2.7-6,6s2.7,6,6,6h138.2c-4.1,8.7-6.8,18.1-7.9,27.9c-0.1,1.2-0.2,2.4-0.3,3.6h-130
	c-3.3,0-6,2.7-6,6s2.7,6,6,6h129.9c0.7,10.9,3.4,21.6,8,31.4H149.3c-3.3,0-6,2.7-6,6s2.7,6,6,6H294c1.3,2,2.7,3.9,4.2,5.8
	c16,20.1,39.1,31.4,62.9,33v12.6L70,415.3L70,415.3z M484.9,443.6l-18.6,14.8c0,0-0.1,0.1-0.3,0.1c-0.1,0-0.2-0.1-0.2-0.1
	l-37.2-46.8c0,0-0.1-0.1-0.1-0.3c0-0.1,0-0.2,0.1-0.2l18.6-14.8c0,0,0.1-0.1,0.3-0.1c0.1,0,0.2,0.1,0.2,0.1l37.2,46.8
	c0,0,0.1,0.1,0.1,0.3C485,443.5,484.9,443.6,484.9,443.6z M330.1,268.3c-25.6,20.4-29.9,57.8-9.5,83.5c11.7,14.7,29,22.4,46.5,22.4
	c13,0,26-4.2,36.9-12.9c25.6-20.4,29.9-57.8,9.5-83.5C393.2,252.2,355.8,247.9,330.1,268.3z M404.2,285.3
	c16.3,20.4,12.9,50.3-7.6,66.6c-20.5,16.3-50.3,12.9-66.6-7.6s-12.9-50.3,7.6-66.6c8.7-6.9,19.1-10.3,29.5-10.3
	C381,267.4,394.9,273.5,404.2,285.3L404.2,285.3z M395.3,292.4c3.8,4.8,6.3,10.5,7.3,16.5c0.5,3.3-1.7,6.4-4.9,6.9
	c-0.3,0.1-0.7,0.1-1,0.1c-2.9,0-5.4-2.1-5.9-5c-0.7-4-2.4-7.8-4.9-11c-5.8-7.2-15.3-10.5-24.2-8.4c-3.2,0.8-6.5-1.2-7.2-4.5
	s1.2-6.5,4.5-7.2C372.4,276.6,386.7,281.6,395.3,292.4z M106.7,155.6h43c3.3,0,6-2.7,6-6v-43c0-3.3-2.7-6-6-6h-43c-3.3,0-6,2.7-6,6
	v43C100.7,152.9,103.4,155.6,106.7,155.6z M112.7,112.5h31v31h-31L112.7,112.5z M128.3,184.1c0,3.3-2.7,6-6,6h-15.6
	c-3.3,0-6-2.7-6-6s2.7-6,6-6h15.6C125.6,178.1,128.3,180.8,128.3,184.1z M149.3,178.1h175.1c3.3,0,6,2.7,6,6s-2.7,6-6,6H149.3
	c-3.3,0-6-2.7-6-6S146,178.1,149.3,178.1L149.3,178.1z M128.3,227.5c0,3.3-2.7,6-6,6h-15.6c-3.3,0-6-2.7-6-6s2.7-6,6-6h15.6
	C125.6,221.5,128.3,224.2,128.3,227.5z M330.4,227.5c0,3.3-2.7,6-6,6H149.3c-3.3,0-6-2.7-6-6s2.7-6,6-6h175.1
	C327.7,221.5,330.4,224.2,330.4,227.5L330.4,227.5z M128.3,271c0,3.3-2.7,6-6,6h-15.6c-3.3,0-6-2.7-6-6s2.7-6,6-6h15.6
	C125.6,265,128.3,267.6,128.3,271z M128.3,314.4c0,3.3-2.7,6-6,6h-15.6c-3.3,0-6-2.7-6-6s2.7-6,6-6h15.6
	C125.6,308.4,128.3,311.1,128.3,314.4z M128.3,357.8c0,3.3-2.7,6-6,6h-15.6c-3.3,0-6-2.7-6-6s2.7-6,6-6h15.6
	C125.6,351.8,128.3,354.5,128.3,357.8z"/>
</svg>
