<svg xmlns="http://www.w3.org/2000/svg" xmlns:xlink="http://www.w3.org/1999/xlink" width="500" zoomAndPan="magnify" viewBox="0 0 375 374.999991" height="500" preserveAspectRatio="xMidYMid meet" version="1.0"><defs><clipPath id="84affe29cb"><path d="M 11.417969 147 L 82 147 L 82 157 L 11.417969 157 Z M 11.417969 147 " clip-rule="nonzero"/></clipPath><clipPath id="48429cdadf"><path d="M 86 72.023438 L 363.917969 72.023438 L 363.917969 302.835938 L 86 302.835938 Z M 86 72.023438 " clip-rule="nonzero"/></clipPath></defs><path fill="#000000" d="M 99.691406 188.589844 C 99.691406 186.054688 97.632812 183.996094 95.089844 183.996094 L 46.171875 183.996094 C 43.632812 183.996094 41.574219 186.054688 41.574219 188.589844 C 41.574219 191.125 43.632812 193.179688 46.171875 193.179688 L 95.089844 193.179688 C 97.632812 193.179688 99.691406 191.125 99.691406 188.589844 " fill-opacity="1" fill-rule="nonzero"/><path fill="#000000" d="M 95.089844 111.3125 L 46.171875 111.3125 C 43.632812 111.3125 41.574219 113.367188 41.574219 115.902344 C 41.574219 118.4375 43.632812 120.496094 46.171875 120.496094 L 95.089844 120.496094 C 97.632812 120.496094 99.691406 118.4375 99.691406 115.902344 C 99.691406 113.367188 97.632812 111.3125 95.089844 111.3125 " fill-opacity="1" fill-rule="nonzero"/><g clip-path="url(#84affe29cb)"><path fill="#000000" d="M 16.015625 156.835938 L 76.578125 156.835938 C 79.117188 156.835938 81.175781 154.78125 81.175781 152.246094 C 81.175781 149.710938 79.117188 147.652344 76.578125 147.652344 L 16.015625 147.652344 C 13.472656 147.652344 11.417969 149.710938 11.417969 152.246094 C 11.417969 154.78125 13.472656 156.835938 16.015625 156.835938 " fill-opacity="1" fill-rule="nonzero"/></g><path fill="#000000" d="M 312.453125 260.808594 C 307.28125 260.808594 303.082031 264.996094 303.082031 270.167969 C 303.082031 275.335938 307.28125 279.523438 312.453125 279.523438 C 317.632812 279.523438 321.828125 275.335938 321.828125 270.167969 C 321.828125 264.996094 317.632812 260.808594 312.453125 260.808594 " fill-opacity="1" fill-rule="nonzero"/><path fill="#000000" d="M 137.5 260.808594 C 132.320312 260.808594 128.125 264.996094 128.125 270.167969 C 128.125 275.335938 132.320312 279.523438 137.5 279.523438 C 142.675781 279.523438 146.871094 275.335938 146.871094 270.167969 C 146.871094 264.996094 142.675781 260.808594 137.5 260.808594 " fill-opacity="1" fill-rule="nonzero"/><path fill="#000000" d="M 331.6875 206.085938 L 279.652344 206.085938 L 279.652344 154.121094 L 297.644531 154.121094 L 331.6875 188.117188 Z M 270.453125 144.933594 L 270.453125 215.265625 L 340.886719 215.265625 L 340.886719 184.316406 L 301.453125 144.933594 L 270.453125 144.933594 " fill-opacity="1" fill-rule="nonzero"/><g clip-path="url(#48429cdadf)"><path fill="#000000" d="M 354.71875 261.132812 C 354.71875 263.511719 352.78125 265.449219 350.398438 265.449219 L 344.789062 265.449219 C 342.488281 249.667969 328.890625 237.496094 312.453125 237.496094 C 296.023438 237.496094 282.421875 249.667969 280.117188 265.449219 L 169.832031 265.449219 C 167.53125 249.667969 153.929688 237.496094 137.496094 237.496094 C 121.070312 237.496094 107.472656 249.664062 105.164062 265.441406 C 99.683594 265.394531 95.230469 260.929688 95.230469 255.445312 L 95.230469 230.953125 L 256.445312 230.953125 L 256.445312 131.121094 L 290.960938 131.121094 C 301.578125 131.121094 311.554688 135.25 319.066406 142.746094 L 343.082031 166.722656 C 350.585938 174.21875 354.71875 184.1875 354.71875 194.785156 Z M 312.453125 293.65625 C 299.484375 293.65625 288.933594 283.121094 288.933594 270.167969 C 288.933594 257.21875 299.484375 246.683594 312.453125 246.683594 C 325.425781 246.683594 335.976562 257.21875 335.976562 270.167969 C 335.976562 283.121094 325.425781 293.65625 312.453125 293.65625 Z M 137.496094 293.65625 C 124.527344 293.65625 113.980469 283.121094 113.980469 270.167969 C 113.980469 257.21875 124.527344 246.683594 137.496094 246.683594 C 150.464844 246.683594 161.015625 257.21875 161.015625 270.167969 C 161.015625 283.121094 150.464844 293.65625 137.496094 293.65625 Z M 325.566406 136.253906 C 316.324219 127.023438 304.035156 121.941406 290.960938 121.941406 L 256.445312 121.941406 L 256.445312 86.546875 C 256.445312 78.535156 249.921875 72.023438 241.894531 72.023438 L 100.578125 72.023438 C 92.558594 72.023438 86.035156 78.535156 86.035156 86.546875 L 86.035156 99.375 C 86.035156 101.910156 88.089844 103.964844 90.632812 103.964844 C 93.175781 103.964844 95.230469 101.910156 95.230469 99.375 L 95.230469 86.546875 C 95.230469 83.601562 97.628906 81.203125 100.578125 81.203125 L 241.894531 81.203125 C 244.84375 81.203125 247.25 83.601562 247.25 86.546875 L 247.25 221.773438 L 95.230469 221.773438 L 95.230469 207.355469 C 95.230469 204.820312 93.175781 202.765625 90.632812 202.765625 C 88.089844 202.765625 86.035156 204.820312 86.035156 207.355469 L 86.035156 255.445312 C 86.035156 265.980469 94.589844 274.550781 105.125 274.621094 C 107.308594 290.527344 120.972656 302.835938 137.496094 302.835938 C 154.019531 302.835938 167.679688 290.535156 169.875 274.632812 L 280.078125 274.632812 C 282.269531 290.535156 295.933594 302.835938 312.453125 302.835938 C 328.976562 302.835938 342.640625 290.535156 344.832031 274.632812 L 350.398438 274.632812 C 357.855469 274.632812 363.917969 268.578125 363.917969 261.132812 L 363.917969 194.785156 C 363.917969 181.734375 358.824219 169.460938 349.582031 160.230469 L 325.566406 136.253906 " fill-opacity="1" fill-rule="nonzero"/></g></svg>