<svg xmlns="http://www.w3.org/2000/svg" xmlns:xlink="http://www.w3.org/1999/xlink" width="520" zoomAndPan="magnify" viewBox="0 0 390 247.499998" height="330" preserveAspectRatio="xMidYMid meet" version="1.0"><defs><clipPath id="8ff63de7f9"><path d="M 190 88 L 294.324219 88 L 294.324219 242.390625 L 190 242.390625 Z M 190 88 " clip-rule="nonzero"/></clipPath><clipPath id="6a9d051d02"><path d="M 261 34 L 294.324219 34 L 294.324219 98 L 261 98 Z M 261 34 " clip-rule="nonzero"/></clipPath><clipPath id="a1c88a8bc6"><path d="M 95.972656 88 L 201 88 L 201 242.390625 L 95.972656 242.390625 Z M 95.972656 88 " clip-rule="nonzero"/></clipPath><clipPath id="0ce8758932"><path d="M 95.972656 34 L 129 34 L 129 98 L 95.972656 98 Z M 95.972656 34 " clip-rule="nonzero"/></clipPath><clipPath id="6215238824"><path d="M 119 4.371094 L 272 4.371094 L 272 45 L 119 45 Z M 119 4.371094 " clip-rule="nonzero"/></clipPath></defs><g clip-path="url(#8ff63de7f9)"><path fill="#000000" d="M 195.15625 242.089844 C 193.113281 242.089844 191.195312 240.820312 190.480469 238.785156 C 189.570312 236.203125 190.929688 233.378906 193.507812 232.476562 C 284.261719 200.582031 284.429688 94.148438 284.421875 93.082031 C 284.398438 90.351562 286.597656 88.117188 289.335938 88.09375 C 291.984375 88.148438 294.316406 90.265625 294.339844 93 C 294.34375 94.140625 294.164062 207.597656 196.808594 241.8125 C 196.257812 242 195.703125 242.089844 195.15625 242.089844 Z M 195.15625 242.089844 " fill-opacity="1" fill-rule="nonzero"/></g><g clip-path="url(#6a9d051d02)"><path fill="#000000" d="M 289.375 97.988281 C 286.636719 97.988281 284.414062 95.777344 284.414062 93.042969 L 284.414062 44.234375 L 266.316406 44.234375 C 263.578125 44.234375 261.351562 42.023438 261.351562 39.28125 C 261.351562 36.542969 263.570312 34.332031 266.316406 34.332031 L 284.414062 34.332031 C 289.882812 34.332031 294.332031 38.769531 294.332031 44.226562 L 294.332031 93.027344 C 294.332031 95.769531 292.113281 97.988281 289.375 97.988281 Z M 289.375 97.988281 " fill-opacity="1" fill-rule="nonzero"/></g><g clip-path="url(#a1c88a8bc6)"><path fill="#000000" d="M 195.15625 242.089844 C 194.609375 242.089844 194.054688 242 193.507812 241.804688 C 96.171875 207.597656 95.964844 94.140625 95.972656 93 C 95.996094 90.28125 98.210938 88.09375 100.9375 88.09375 C 100.945312 88.09375 100.957031 88.09375 100.972656 88.09375 C 103.714844 88.109375 105.914062 90.34375 105.898438 93.074219 C 105.890625 94.148438 106.226562 200.636719 196.808594 232.476562 C 199.390625 233.386719 200.746094 236.210938 199.835938 238.785156 C 199.109375 240.820312 197.195312 242.089844 195.15625 242.089844 Z M 195.15625 242.089844 " fill-opacity="1" fill-rule="nonzero"/></g><g clip-path="url(#0ce8758932)"><path fill="#000000" d="M 100.9375 97.988281 C 98.195312 97.988281 95.972656 95.777344 95.972656 93.042969 L 95.972656 44.234375 C 95.972656 38.773438 100.421875 34.339844 105.890625 34.339844 L 124.003906 34.339844 C 126.742188 34.339844 128.964844 36.550781 128.964844 39.289062 C 128.964844 42.03125 126.75 44.238281 124.003906 44.238281 L 105.890625 44.238281 L 105.890625 93.042969 C 105.890625 95.769531 103.675781 97.988281 100.9375 97.988281 Z M 100.9375 97.988281 " fill-opacity="1" fill-rule="nonzero"/></g><g clip-path="url(#6215238824)"><path fill="#000000" d="M 266.058594 44.234375 C 224.921875 44.234375 203.34375 26.164062 195.15625 17.1875 C 186.976562 26.171875 165.394531 44.234375 124.246094 44.234375 C 121.507812 44.234375 119.285156 42.023438 119.285156 39.28125 C 119.285156 36.542969 121.5 34.332031 124.246094 34.332031 C 172.492188 34.332031 190.566406 7.199219 190.738281 6.917969 C 191.65625 5.503906 193.222656 4.648438 194.914062 4.648438 L 195.40625 4.648438 C 197.089844 4.648438 198.660156 5.503906 199.570312 6.917969 C 200.300781 8.023438 218.175781 34.332031 266.058594 34.332031 C 268.796875 34.332031 271.019531 36.542969 271.019531 39.28125 C 271.019531 42.023438 268.796875 44.234375 266.058594 44.234375 Z M 266.058594 44.234375 " fill-opacity="1" fill-rule="nonzero"/></g><path fill="#000000" d="M 190.996094 158 C 189.835938 158 188.714844 157.597656 187.808594 156.851562 L 152.300781 127.171875 C 150.195312 125.417969 149.925781 122.296875 151.683594 120.203125 C 153.445312 118.105469 156.570312 117.832031 158.671875 119.589844 L 190.140625 145.882812 L 230.84375 90.765625 C 232.464844 88.5625 235.570312 88.09375 237.777344 89.714844 C 239.984375 91.332031 240.457031 94.429688 238.832031 96.632812 L 195.003906 155.988281 C 194.191406 157.09375 192.960938 157.804688 191.605469 157.960938 C 191.382812 157.984375 191.1875 158 190.996094 158 Z M 190.996094 158 " fill-opacity="1" fill-rule="nonzero"/></svg>