<svg xmlns="http://www.w3.org/2000/svg" xmlns:xlink="http://www.w3.org/1999/xlink" width="500" zoomAndPan="magnify" viewBox="0 0 375 374.999991" height="500" preserveAspectRatio="xMidYMid meet" version="1.0"><defs><clipPath id="9f94a63458"><path d="M 3.277344 89.402344 L 371.527344 89.402344 L 371.527344 285.902344 L 3.277344 285.902344 Z M 3.277344 89.402344 " clip-rule="nonzero"/></clipPath><clipPath id="2c27ff8271"><path d="M 162.816406 140.367188 L 212.316406 140.367188 L 212.316406 234.867188 L 162.816406 234.867188 Z M 162.816406 140.367188 " clip-rule="nonzero"/></clipPath></defs><path fill="#ffffff" d="M 368.054688 282.621094 L 6.636719 282.621094 L 6.636719 92.679688 L 368.054688 92.679688 L 368.054688 282.621094 " fill-opacity="1" fill-rule="nonzero"/><g clip-path="url(#9f94a63458)"><path fill="#231f20" d="M 368.054688 282.621094 L 368.054688 279.328125 L 9.921875 279.328125 L 9.921875 95.972656 L 364.769531 95.972656 L 364.769531 282.621094 L 368.054688 282.621094 L 368.054688 279.328125 L 368.054688 282.621094 L 371.335938 282.621094 L 371.335938 92.679688 C 371.335938 91.816406 370.992188 90.96875 370.378906 90.355469 C 369.769531 89.742188 368.921875 89.390625 368.054688 89.390625 L 6.636719 89.390625 C 5.773438 89.390625 4.925781 89.742188 4.316406 90.355469 C 3.703125 90.96875 3.355469 91.816406 3.355469 92.679688 L 3.355469 282.621094 C 3.355469 283.488281 3.703125 284.332031 4.316406 284.945312 C 4.925781 285.5625 5.773438 285.914062 6.636719 285.914062 L 368.054688 285.914062 C 368.921875 285.914062 369.769531 285.5625 370.378906 284.945312 C 370.992188 284.332031 371.335938 283.488281 371.335938 282.621094 L 368.054688 282.621094 " fill-opacity="1" fill-rule="nonzero"/></g><path fill="#ffffff" d="M 313.804688 113.011719 C 313.804688 112.398438 313.863281 111.800781 313.894531 111.191406 L 60.886719 111.191406 C 60.886719 129.28125 47.023438 143.960938 29.925781 143.960938 L 29.925781 231.339844 C 47.023438 231.339844 60.886719 246.011719 60.886719 264.105469 L 313.894531 264.105469 C 314.792969 246.859375 328.253906 233.167969 344.769531 233.167969 L 344.769531 145.777344 C 327.671875 145.777344 313.804688 131.101562 313.804688 113.011719 " fill-opacity="1" fill-rule="nonzero"/><path fill="#231f20" d="M 313.804688 113.011719 L 317.089844 113.011719 C 317.089844 112.582031 317.132812 112.058594 317.175781 111.398438 C 317.230469 110.496094 316.910156 109.601562 316.289062 108.941406 C 315.671875 108.28125 314.796875 107.902344 313.894531 107.902344 L 60.886719 107.902344 C 60.023438 107.902344 59.175781 108.25 58.5625 108.863281 C 57.953125 109.476562 57.601562 110.324219 57.601562 111.191406 C 57.601562 119.394531 54.464844 126.773438 49.433594 132.097656 C 44.394531 137.425781 37.523438 140.667969 29.925781 140.671875 C 29.0625 140.671875 28.214844 141.019531 27.605469 141.632812 C 26.992188 142.246094 26.640625 143.09375 26.640625 143.960938 L 26.640625 231.339844 C 26.640625 232.207031 26.992188 233.054688 27.605469 233.664062 C 28.214844 234.277344 29.0625 234.628906 29.925781 234.628906 C 37.523438 234.632812 44.394531 237.875 49.433594 243.203125 C 54.464844 248.527344 57.601562 255.90625 57.601562 264.105469 C 57.601562 264.976562 57.953125 265.824219 58.5625 266.433594 C 59.175781 267.046875 60.023438 267.394531 60.886719 267.394531 L 313.894531 267.394531 C 315.640625 267.394531 317.085938 266.023438 317.175781 264.277344 C 317.582031 256.46875 320.832031 249.5 325.804688 244.492188 C 330.785156 239.484375 337.425781 236.460938 344.769531 236.457031 C 345.632812 236.457031 346.476562 236.105469 347.085938 235.492188 C 347.703125 234.878906 348.054688 234.03125 348.054688 233.167969 L 348.054688 145.777344 C 348.054688 144.914062 347.703125 144.066406 347.085938 143.453125 C 346.476562 142.839844 345.632812 142.488281 344.769531 142.488281 C 337.171875 142.488281 330.300781 139.246094 325.261719 133.917969 C 320.226562 128.589844 317.089844 121.207031 317.089844 113.011719 L 310.523438 113.011719 C 310.523438 122.90625 314.320312 131.910156 320.492188 138.441406 C 326.65625 144.976562 335.269531 149.070312 344.769531 149.066406 L 344.769531 145.777344 L 341.488281 145.777344 L 341.488281 233.167969 L 344.769531 233.167969 L 344.769531 229.878906 C 335.59375 229.875 327.25 233.699219 321.148438 239.847656 C 315.042969 246 311.109375 254.5 310.621094 263.933594 L 313.894531 264.105469 L 313.894531 260.816406 L 60.886719 260.816406 L 60.886719 264.105469 L 64.167969 264.105469 C 64.167969 254.214844 60.375 245.210938 54.203125 238.675781 C 48.035156 232.144531 39.425781 228.046875 29.925781 228.046875 L 29.925781 231.339844 L 33.207031 231.339844 L 33.207031 143.960938 L 29.925781 143.960938 L 29.925781 147.246094 C 39.425781 147.25 48.035156 143.15625 54.203125 136.621094 C 60.375 130.089844 64.167969 121.085938 64.167969 111.191406 L 60.886719 111.191406 L 60.886719 114.480469 L 313.894531 114.480469 L 313.894531 111.191406 L 310.621094 110.984375 C 310.585938 111.542969 310.527344 112.210938 310.523438 113.011719 L 313.804688 113.011719 " fill-opacity="1" fill-rule="nonzero"/><path fill="#ffffff" d="M 263.648438 187.652344 C 263.648438 229.878906 229.492188 264.105469 187.351562 264.105469 C 145.210938 264.105469 111.042969 229.878906 111.042969 187.652344 C 111.042969 145.421875 145.210938 111.191406 187.351562 111.191406 C 229.492188 111.191406 263.648438 145.421875 263.648438 187.652344 " fill-opacity="1" fill-rule="nonzero"/><path fill="#231f20" d="M 263.648438 187.652344 L 260.367188 187.652344 C 260.367188 207.867188 252.199219 226.136719 238.980469 239.386719 C 225.757812 252.636719 207.523438 260.816406 187.351562 260.816406 C 167.175781 260.816406 148.941406 252.636719 135.714844 239.386719 C 122.496094 226.136719 114.324219 207.867188 114.324219 187.652344 C 114.324219 167.433594 122.496094 149.160156 135.714844 135.914062 C 148.941406 122.664062 167.175781 114.484375 187.351562 114.480469 C 207.523438 114.484375 225.757812 122.664062 238.980469 135.910156 C 252.199219 149.160156 260.367188 167.433594 260.367188 187.652344 L 266.929688 187.652344 C 266.933594 165.640625 258.023438 145.679688 243.625 131.261719 C 229.234375 116.835938 209.320312 107.902344 187.351562 107.902344 C 165.386719 107.902344 145.464844 116.835938 131.074219 131.257812 C 116.671875 145.679688 107.753906 165.636719 107.761719 187.652344 C 107.753906 209.664062 116.671875 229.621094 131.074219 244.042969 C 145.464844 258.46875 165.386719 267.398438 187.351562 267.394531 C 209.320312 267.398438 229.234375 258.46875 243.625 244.042969 C 258.023438 229.621094 266.933594 209.664062 266.929688 187.652344 L 263.648438 187.652344 " fill-opacity="1" fill-rule="nonzero"/><g clip-path="url(#2c27ff8271)"><path fill="#000000" d="M 170.042969 205.445312 C 170.042969 205.445312 177.992188 213.179688 188.3125 213.179688 C 193.890625 213.179688 198.941406 210.296875 198.941406 204.304688 C 198.941406 191.921875 164.054688 193.160156 164.054688 170.976562 C 164.054688 160.347656 172.003906 152.085938 183.460938 150.226562 L 183.460938 140.527344 L 192.335938 140.527344 L 192.335938 150.023438 C 204.3125 151.050781 210.503906 157.554688 210.503906 157.554688 L 204.75 168.425781 C 204.75 168.425781 197.714844 162.03125 188.542969 162.03125 C 182.351562 162.03125 177.5 165.644531 177.5 170.800781 C 177.5 183.085938 212.289062 180.917969 212.289062 204.050781 C 212.289062 214.574219 204.960938 223.558594 192.363281 225.207031 L 192.363281 234.703125 L 183.460938 234.703125 L 183.460938 225.15625 C 170.144531 223.609375 162.816406 215.457031 162.816406 215.457031 Z M 170.042969 205.445312 " fill-opacity="1" fill-rule="nonzero"/></g></svg>