<?xml version="1.0" encoding="utf-8"?>
<!-- Generator: Adobe Illustrator 28.0.0, SVG Export Plug-In . SVG Version: 6.00 Build 0)  -->
<svg version="1.1" id="Layer_1" xmlns="http://www.w3.org/2000/svg" xmlns:xlink="http://www.w3.org/1999/xlink" x="0px" y="0px"
	 viewBox="0 0 512 512" style="enable-background:new 0 0 512 512;" xml:space="preserve">
<style type="text/css">
	.st0{fill:#272D42;}
</style>
<g>
	<path class="st0" d="M256,508.2c0.8,0,1.5,0,2.3-0.8c124.6-42,207.9-158.2,207.9-289.6V84.1c0-4.6-3.1-7.6-7.6-7.6
		c-120,0-192.6-68-197.9-71.1c-3.1-2.3-6.1-2.3-9.2,0c-5.3,3.1-78.7,71.1-197.9,71.1c-4.6,0-7.6,3.1-7.6,7.6v133.7
		c0,131.4,83.3,247.6,207.9,290.4H256z M61.1,217.8V91.7c117.7-3.1,191-68.8,194.9-71.1c4.6,2.3,76.4,68,194.9,71.1v126.1
		c0,123.8-77.9,233.8-194.9,275.1C139.1,451.6,61.1,341.6,61.1,217.8z"/>
	<path class="st0" d="M259.1,466.9c102.4-40.5,168.9-138.3,168.9-249.1v-97.1c0-3.8-3.1-6.9-6.9-7.6C363,107,307.2,86.4,259.8,52.7
		c-2.3-1.5-6.1-1.5-8.4,0C204,85.6,148.3,106.2,90.2,113.1c-3.8,0.8-6.9,3.8-6.9,7.6v97.1c0,110.8,66.5,208.6,169.6,249.1
		c0.8,0,1.5,0.8,3.1,0.8C257.5,467.7,257.5,467.7,259.1,466.9L259.1,466.9z M99.3,217.8v-90.9C155.1,120,209.4,99.3,256,68
		c46.6,31.3,100.9,52,156.7,58.8V217c0,103.9-61.1,195.6-156.7,234.6C160.5,412.7,99.3,321,99.3,217.8L99.3,217.8z"/>
	<path class="st0" d="M346.9,196.4c-3.1-3.1-7.6-3.1-10.7,0L223.1,308.7l-45.1-45.1c-3.1-3.1-7.6-3.1-10.7,0
		c-3.1,3.1-3.1,7.6,0,10.7l50.4,50.4c1.5,1.5,3.1,2.3,5.3,2.3c2.3,0,3.8-0.8,5.3-2.3l118.4-118.4C350,204,350,199.5,346.9,196.4z"/>
</g>
</svg>
