<?xml version="1.0" encoding="utf-8"?>
<!-- Generator: Adobe Illustrator 28.0.0, SVG Export Plug-In . SVG Version: 6.00 Build 0)  -->
<svg version="1.1" id="Capa_1" xmlns="http://www.w3.org/2000/svg" xmlns:xlink="http://www.w3.org/1999/xlink" x="0px" y="0px"
	 viewBox="0 0 512 512" style="enable-background:new 0 0 512 512;" xml:space="preserve">
<style type="text/css">
	.st0{fill:#272D42;}
</style>
<path class="st0" d="M478.5,83.5h-385C75,83.5,60,98.5,60,117v71.5H7.5c-4.1,0-7.5,3.4-7.5,7.5s3.4,7.5,7.5,7.5h90
	c4.1,0,7.5-3.4,7.5-7.5s-3.4-7.5-7.5-7.5H75V117c0-2.3,0.5-4.6,1.3-6.6L221.9,256L76.3,401.6c-0.8-2.1-1.3-4.3-1.3-6.6v-49
	c0-4.1-3.4-7.5-7.5-7.5S60,341.9,60,346v49c0,18.5,15,33.5,33.5,33.5h385c18.5,0,33.5-15,33.5-33.5V117
	C512,98.5,497,83.5,478.5,83.5z M350.1,256l145.6-145.6c0.8,2.1,1.3,4.3,1.3,6.6v278c0,2.3-0.5,4.6-1.3,6.6L350.1,256z M478.5,98.5
	c2.3,0,4.6,0.5,6.6,1.3L317.8,267.1c-17.5,17.5-46.1,17.5-63.6,0L86.9,99.8c2.1-0.8,4.3-1.3,6.6-1.3L478.5,98.5z M93.5,413.5
	c-2.3,0-4.6-0.5-6.6-1.3l145.6-145.6l11.1,11.1c11.7,11.7,27.1,17.5,42.4,17.5s30.7-5.8,42.4-17.5l11.1-11.1l145.6,145.6
	c-2.1,0.8-4.3,1.3-6.6,1.3H93.5z"/>
<path class="st0" d="M67.5,218.5c-4.1,0-7.5,3.4-7.5,7.5v22.5H7.5c-4.1,0-7.5,3.4-7.5,7.5s3.4,7.5,7.5,7.5h120
	c4.1,0,7.5-3.4,7.5-7.5s-3.4-7.5-7.5-7.5H75V226C75,221.9,71.6,218.5,67.5,218.5z"/>
<path class="st0" d="M97.5,323.5c4.1,0,7.5-3.4,7.5-7.5s-3.4-7.5-7.5-7.5H75V286c0-4.1-3.4-7.5-7.5-7.5S60,281.9,60,286v22.5H7.5
	c-4.1,0-7.5,3.4-7.5,7.5s3.4,7.5,7.5,7.5H97.5z"/>
</svg>
